<?xml version="1.0" encoding="utf-8"?>
<!-- Generator: Adobe Illustrator 19.1.0, SVG Export Plug-In . SVG Version: 6.00 Build 0)  -->
<svg version="1.1" id="Layer_1" xmlns="http://www.w3.org/2000/svg" xmlns:xlink="http://www.w3.org/1999/xlink" x="0px" y="0px"
	 viewBox="0 0 26 26" style="enable-background:new 0 0 26 26;" xml:space="preserve">
<style type="text/css">
	.st0{fill:none;stroke:#FFFFFF;stroke-width:1.5;stroke-linecap:round;stroke-linejoin:round;stroke-miterlimit:10;}
	.st1{fill:none;stroke:#FFFFFF;stroke-width:1.5;stroke-miterlimit:10;}
</style>
<g>
	<g>
		<line class="st0" x1="6.1" y1="5.9" x2="20.5" y2="5.9"/>
		<line class="st0" x1="6.1" y1="10.2" x2="20.5" y2="10.2"/>
		<line class="st0" x1="6.1" y1="14.4" x2="20.5" y2="14.4"/>
	</g>
	<path class="st1" d="M16.1,19.8H3.4c-1.5,0-2.7-1.2-2.7-2.7V3.7C0.8,2.2,2,1,3.4,1h19.1c1.5,0,2.7,1.2,2.7,2.7v13.4
		c0,1.5-1.2,2.7-2.7,2.7h-1.9"/>
	<path class="st1" d="M15.4,19.5c0,0,3,4.4,3.5,4.9c0.8,1.1,2.9,0.6,2.8-0.9c0-0.6-0.3-2.9-0.3-3c0,0,0-0.2,0-0.2"/>
</g>
</svg>
