<?xml version="1.0" encoding="utf-8"?>
<!-- Generator: Adobe Illustrator 19.1.0, SVG Export Plug-In . SVG Version: 6.00 Build 0)  -->
<svg version="1.1" id="Layer_1" xmlns="http://www.w3.org/2000/svg" xmlns:xlink="http://www.w3.org/1999/xlink" x="0px" y="0px"
	 viewBox="-466 268 26 26" style="enable-background:new -466 268 26 26;" xml:space="preserve">
<style type="text/css">
	.st0{fill:none;stroke:#FFFFFF;stroke-width:1.5;stroke-linecap:round;stroke-linejoin:round;stroke-miterlimit:10;}
	.st1{fill:none;}
</style>
<g>
	<path d="M-442.3,282"/>
	<path class="st0" d="M-442.3,278.4l-1.7-0.3c-0.2-0.6-0.4-1.1-0.7-1.6l1-1.4c0.4-0.6,0.4-1.4-0.2-1.9l-1.5-1.5
		c-0.3-0.3-0.7-0.4-1.1-0.4c-0.3,0-0.6,0.1-0.9,0.3l-1.4,1c-0.5-0.3-1.1-0.5-1.7-0.7l-0.3-1.7c0-0.8-0.6-1.3-1.3-1.3h-2.1
		c-0.7,0-1.4,0.5-1.5,1.2l-0.3,1.8c-0.6,0.1-1.1,0.4-1.6,0.7l-1.4-1c-0.3-0.2-0.6-0.3-0.9-0.3c-0.4,0-0.8,0.2-1.1,0.4l-1.5,1.5
		c-0.5,0.5-0.5,1.3-0.1,1.9l1,1.4c-0.3,0.5-0.5,1.1-0.7,1.6l-1.7,0.3c-0.7,0.2-1.2,0.8-1.2,1.6v2.1c0,0.7,0.5,1.4,1.2,1.5l1.8,0.3
		c0.2,0.6,0.4,1.1,0.7,1.6l-1,1.4c-0.4,0.6-0.4,1.4,0.2,1.9l1.5,1.5c0.3,0.3,0.7,0.4,1.1,0.4c0.3,0,0.6-0.1,0.9-0.3l1.4-1
		c0.5,0.3,1,0.5,1.6,0.7l0.3,1.7c0.1,0.7,0.7,1.2,1.5,1.2h2.1c0.7,0,1.4-0.5,1.5-1.2l0.3-1.7c0.6-0.2,1.1-0.4,1.6-0.7l1.4,1
		c0.3,0.2,0.6,0.3,0.9,0.3c0.4,0,0.8-0.2,1.1-0.4l1.5-1.5c0.5-0.5,0.6-1.3,0.2-1.9l-1-1.4c0.3-0.5,0.5-1.1,0.7-1.6l1.7-0.3
		c0.7-0.1,1.2-0.7,1.2-1.5v-2.2C-441,279.2-441.6,278.6-442.3,278.4L-442.3,278.4z"/>
	<path class="st0" d="M-453,285.4c-2.4,0-4.4-2-4.4-4.4s2-4.4,4.4-4.4s4.4,2,4.4,4.4S-450.6,285.4-453,285.4L-453,285.4z"/>
	<rect x="-466" y="268" class="st1" width="26" height="26"/>
</g>
</svg>
